<svg width="40" height="41" viewBox="0 0 40 41" fill="none" xmlns="http://www.w3.org/2000/svg">
<g id="Vector">
<mask id="path-1-inside-1_167_533" fill="white">
<path d="M19.9218 0.783203C9.14823 0.783203 0.367676 9.76353 0.367676 20.7822C0.367676 31.8009 9.14823 40.7813 19.9218 40.7813C30.6954 40.7813 39.4759 31.8009 39.4759 20.7822C39.4759 9.76353 30.6954 0.783203 19.9218 0.783203ZM19.9218 3.85998C23.8514 3.85998 27.4426 5.25414 30.2723 7.59057C28.834 9.39817 26.1923 11.9077 21.7644 13.5518C19.3577 9.10011 17.3459 6.25409 15.9452 4.36957C17.2143 4.05228 18.5493 3.85998 19.9218 3.85998ZM12.965 5.44644C14.1402 6.99444 16.2648 9.90776 18.7937 14.4652C12.2976 16.2055 6.43134 16.3209 3.98707 16.244C5.29381 11.4365 8.60297 7.50403 12.965 5.44644ZM32.4346 9.72507C34.9352 12.6961 36.4676 16.5517 36.4676 20.7822C36.4676 21.4168 36.43 22.0322 36.3642 22.6475C35.8189 22.5706 35.4147 22.5033 34.719 22.4456C32.3876 22.2629 29.304 22.2629 25.9667 22.7725C25.0924 20.4553 24.1335 18.3112 23.1464 16.3017C27.7905 14.4845 30.733 11.8019 32.4346 9.72507ZM20.2226 17.2536C21.1721 19.1573 22.0934 21.1957 22.9489 23.3879C18.9911 24.5897 15.3905 27.33 12.6266 29.8779C11.1507 31.224 9.93792 32.5124 9.03542 33.522C5.56644 30.4164 3.3666 25.8781 3.3666 20.7918C3.3666 20.2822 3.40421 19.8015 3.44181 19.3112C5.58524 19.3977 12.4386 19.465 20.2226 17.2536ZM30.1783 25.4262C32.491 25.3397 34.3148 25.5032 35.7625 25.6666C34.672 29.426 32.3312 32.6278 29.2382 34.7815C28.74 31.6182 27.9691 28.5799 27.0384 25.7147C28.1195 25.5705 29.1818 25.4743 30.1783 25.4262ZM24.0301 26.2723C25.1018 29.4356 25.9479 32.8105 26.4273 36.3488C24.4249 37.2141 22.2345 37.7045 19.9124 37.7045C16.8195 37.7045 13.9522 36.8295 11.4797 35.3392C12.3164 34.4258 13.3505 33.3201 14.629 32.1567C17.2895 29.7145 20.7585 27.2242 24.0301 26.2723Z"/>
</mask>
<path d="M19.9218 0.783203C9.14823 0.783203 0.367676 9.76353 0.367676 20.7822C0.367676 31.8009 9.14823 40.7813 19.9218 40.7813C30.6954 40.7813 39.4759 31.8009 39.4759 20.7822C39.4759 9.76353 30.6954 0.783203 19.9218 0.783203ZM19.9218 3.85998C23.8514 3.85998 27.4426 5.25414 30.2723 7.59057C28.834 9.39817 26.1923 11.9077 21.7644 13.5518C19.3577 9.10011 17.3459 6.25409 15.9452 4.36957C17.2143 4.05228 18.5493 3.85998 19.9218 3.85998ZM12.965 5.44644C14.1402 6.99444 16.2648 9.90776 18.7937 14.4652C12.2976 16.2055 6.43134 16.3209 3.98707 16.244C5.29381 11.4365 8.60297 7.50403 12.965 5.44644ZM32.4346 9.72507C34.9352 12.6961 36.4676 16.5517 36.4676 20.7822C36.4676 21.4168 36.43 22.0322 36.3642 22.6475C35.8189 22.5706 35.4147 22.5033 34.719 22.4456C32.3876 22.2629 29.304 22.2629 25.9667 22.7725C25.0924 20.4553 24.1335 18.3112 23.1464 16.3017C27.7905 14.4845 30.733 11.8019 32.4346 9.72507ZM20.2226 17.2536C21.1721 19.1573 22.0934 21.1957 22.9489 23.3879C18.9911 24.5897 15.3905 27.33 12.6266 29.8779C11.1507 31.224 9.93792 32.5124 9.03542 33.522C5.56644 30.4164 3.3666 25.8781 3.3666 20.7918C3.3666 20.2822 3.40421 19.8015 3.44181 19.3112C5.58524 19.3977 12.4386 19.465 20.2226 17.2536ZM30.1783 25.4262C32.491 25.3397 34.3148 25.5032 35.7625 25.6666C34.672 29.426 32.3312 32.6278 29.2382 34.7815C28.74 31.6182 27.9691 28.5799 27.0384 25.7147C28.1195 25.5705 29.1818 25.4743 30.1783 25.4262ZM24.0301 26.2723C25.1018 29.4356 25.9479 32.8105 26.4273 36.3488C24.4249 37.2141 22.2345 37.7045 19.9124 37.7045C16.8195 37.7045 13.9522 36.8295 11.4797 35.3392C12.3164 34.4258 13.3505 33.3201 14.629 32.1567C17.2895 29.7145 20.7585 27.2242 24.0301 26.2723Z" fill="#070707" stroke="#070707" stroke-width="2" mask="url(#path-1-inside-1_167_533)"/>
</g>
</svg>
